<svg xmlns="http://www.w3.org/2000/svg" width="160" height="160" viewBox="0 0 160 160">
  <defs>
    <linearGradient id="fanBody" x1="0" y1="0" x2="1" y2="1">
      <stop offset="0%" stop-color="#d7dde5"/>
      <stop offset="100%" stop-color="#b4beca"/>
    </linearGradient>
  </defs>
  <circle cx="80" cy="80" r="70" fill="url(#fanBody)" stroke="#6b7380" stroke-width="3"/>
  <circle cx="80" cy="80" r="50" fill="#ffffff" stroke="#8aa2b3" stroke-width="2"/>
  <g transform="translate(80,80)">
    <g fill="#8fb5d6" stroke="#6e8799" stroke-width="1.5">
      <path d="M0 -8 C 18 -18, 52 -6, 56 12 C 40 4, 10 6, 0 8 Z"/>
      <path d="M8 0 C 18 18, 6 52 -12 56 C -4 40 -6 10 -8 0 Z"/>
      <path d="M0 8 C -18 18, -52 6, -56 -12 C -40 -4, -10 -6, 0 -8 Z"/>
      <path d="M-8 0 C -18 -18, -6 -52 12 -56 C 4 -40 6 -10 8 0 Z"/>
    </g>
  </g>
  <circle cx="80" cy="80" r="10" fill="#6e8799"/>
  <circle cx="80" cy="80" r="4" fill="#ffffff"/>
  <rect x="0" y="0" width="160" height="160" fill="none"/>
</svg>
